<svg xmlns="http://www.w3.org/2000/svg" xmlns:xlink="http://www.w3.org/1999/xlink" width="70" height="88"><defs><path id="b" d="M423.09 3805.387v-12.427a5.379 5.379 0 0 0-1.32-3.525c.56-4.592 1.76-7.632 3.83-9.762 2.668-2.749 7.052-4.085 13.4-4.085 7.652 0 12.351 1.863 14.789 5.863 1.182 1.94 1.975 4.572 2.412 8.019a5.388 5.388 0 0 0-1.292 3.49v12.427c0 .72.14 1.41.395 2.04-1.969.511-4.978.936-9.544.936-.285 0-.576-.001-.87-.005a4.782 4.782 0 0 0-3.36-1.376h-3.537c-2.665 0-4.834 2.199-4.834 4.902 0 2.703 2.169 4.902 4.834 4.902h3.537a4.798 4.798 0 0 0 2.95-1.022c.437.007.845.01 1.235.01 1.66 0 3.213-.052 4.667-.155-3.975 3.675-8.605 5.35-11.382 5.35-4.224 0-12.732-3.871-16.707-12.765a5.346 5.346 0 0 0 .798-2.817zm-12.388 0v-12.427c0-1.62 1.296-2.934 2.894-2.934h1.595c.45-4.69 1.445-8.68 3.492-12.039 3.685-6.048 10.33-8.988 20.317-8.988 9.985 0 16.632 2.94 20.317 8.988 2.047 3.36 3.043 7.35 3.492 12.039h1.596c1.598 0 2.893 1.313 2.893 2.934v12.427c0 1.62-1.296 2.934-2.893 2.934h-1.307c-.083.13-.173.262-.272.394-2.327 3.104-8.073 4.668-17.111 4.668a85.74 85.74 0 0 1-2.178-.031 2.46 2.46 0 0 1-2.006 1.042h-3.537c-1.368 0-2.476-1.124-2.476-2.51 0-1.387 1.108-2.51 2.476-2.51h3.537c.956 0 1.784.55 2.197 1.354a83.54 83.54 0 0 0 2.032.026c8.018 0 11.89-1.267 13.76-2.508a2.925 2.925 0 0 1-2.253-2.859v-12.428c0-1.072.569-2.007 1.415-2.518-.38-3.881-1.194-7.469-2.887-10.247-2.91-4.773-8.246-6.997-16.795-6.997-14.887 0-18.76 7.052-19.707 17.228a2.938 2.938 0 0 1 1.44 2.534v12.428c0 1.62-1.296 2.934-2.894 2.934h-4.243c-1.598 0-2.894-1.313-2.894-2.933zm63.221 40.14c-.164.468-4.36 11.472-34.923 11.472-30.564 0-34.76-11.004-34.924-11.473a1.357 1.357 0 0 1-.059-.66c.354-2.234 2.352-13.537 6.927-16.662 2.704-1.849 12.283-7.079 16.275-9.242.462-.25 1.026-.2 1.438.128 2.119 1.686 4.438 2.822 6.893 3.376.434.097.79.41.948.832l2.502 6.685 2.502-6.685c.157-.422.514-.735.948-.832 2.455-.554 4.774-1.69 6.892-3.376a1.306 1.306 0 0 1 1.438-.128l.085.046c4.038 2.187 13.494 7.31 16.202 9.204 3.973 2.776 5.953 10.59 6.915 16.654.036.222.015.448-.059.66zm-14.171-10.21h-12.106v2.584h12.106z"/><linearGradient id="a" x1="439" x2="439" y1="3857" y2="3769" gradientUnits="userSpaceOnUse"><stop offset="0" stop-color="#9219d7"/><stop offset="1" stop-color="#c16ef0"/></linearGradient></defs><use fill="url(#a)" xlink:href="#b" transform="translate(-404 -3769)"/></svg>